<svg width="624" height="570" viewBox="0 0 624 570" fill="none" xmlns="http://www.w3.org/2000/svg">
<path d="M488.936 142.135C488.28 142.838 488.792 145.316 487.88 146.099C485.163 148.433 480.095 145.62 477.873 144.229C470.311 139.497 466.187 130.992 458.737 126.116C456.771 124.821 451.144 123.191 455.764 120.953C453.925 116.269 446.188 111.137 441.36 110.482C441.696 99.7868 438.403 103.016 429.003 100.027C421.521 97.6446 413.112 89.9712 401.394 88.98C397.318 89.0599 395.447 84.6637 393.017 81.994C396.63 80.0436 404.16 82.2178 408.732 81.6902C413.24 81.1787 417.477 80.6351 422.208 80.9868C425.134 81.1947 429.61 81.1787 433.127 81.8181C407.949 67.4144 379.557 57.8706 349.023 54.5454C294.142 48.5505 241.739 63.6416 199.519 93.4402C207.64 91.346 214.833 91.4739 218.974 91.9375C224.313 92.513 238.765 95.2307 238.589 90.3229C238.397 85.4151 238.206 83.9603 232.834 83.7365C227.463 83.5127 215.249 83.2569 225.512 78.2532C235.776 73.2494 246.758 74.8161 250.643 75.5994C254.512 76.3828 264.311 72.4181 269.603 70.1161C274.894 67.8141 288.595 64.2651 279.994 73.777C271.393 83.2729 263.496 93.0565 263.496 93.0565C263.496 93.0565 249.828 99.6429 265.942 97.0691C275.869 95.4865 282.136 92.4171 288.083 91.2341C279.738 89.5555 273.264 86.8538 273.391 82.5215C280.138 80.2195 288.786 84.9514 295.868 84.3759C299.737 84.0562 303.27 82.1858 307.362 82.1378C314.221 82.0419 321.255 84.0402 327.825 85.7028C332.253 86.8218 340.278 90.6426 344.067 86.5341C340.438 82.3936 335.562 78.1253 330.926 75.1198C324.612 71.0273 310.56 72.594 307.81 65.7199C313.613 64.8566 318.665 63.258 324.66 63.8814C334.236 64.8726 343.795 65.9756 353.355 67.0148C364.562 68.2457 380.02 67.0787 390.316 72.1304C393.689 78.3811 388.397 76.095 383.521 75.9032C373.274 75.5035 358.231 76.2709 348.943 80.5552C358.279 85.2072 347.264 91.4899 347.616 97.4847C343.668 99.1633 338.488 98.2041 334.252 98.4919C338.008 100.506 342.277 101.369 346.097 103.288C340.902 104.087 335.85 105.766 330.639 106.293C330.783 106.101 330.942 105.91 331.102 105.718C327.793 103.224 320.311 101.034 319.976 96.7973C322.182 96.8933 323.077 95.982 323.653 94.0317C322.31 94.0317 313.038 94.0477 302.806 93.1844C312.206 96.3177 318.873 96.9252 319.017 95.6303C319.176 94.2075 319.384 102.153 313.949 112.352C308.514 122.551 348.096 129.314 348.863 132.127C349.63 134.957 350.366 147.986 359.062 147.506C367.759 147.01 365.313 138.106 365.313 138.106L372.619 134.717L373.722 124.63L367.327 119.61L374.921 113.567C374.921 113.567 386.671 122.439 402.018 134.909L419.539 130.337L442.271 154.412C442.271 154.412 445.692 160.551 441.648 160.103C437.603 159.656 407.533 161.414 407.533 161.414L401.442 167.953C401.442 167.953 411.961 169.823 415.27 169.455C418.596 169.104 425.949 174.219 425.949 174.219C425.949 174.219 437.443 181.237 431.145 182.708C424.862 184.179 400.835 186.593 400.835 186.593C400.835 186.593 402.737 179.607 397.11 179.703C391.499 179.814 389.532 191.117 384.401 191.996C379.269 192.875 369.901 188.975 368.59 193.147C367.263 197.32 368.99 203.986 367.12 206.656C365.249 209.325 351.661 215.048 351.661 215.048L344.275 242.241L330.735 222.13L316.906 223.505L310.832 226.447L301.08 221.779L278.843 229.436L283.591 258.483L295.98 268.507L308.338 255.942L321.287 262.592L314.141 275.333L313.469 281.424L332.333 283.486L338.376 296.387L330.159 303.405L341.27 310.375L353.291 311.686L355.338 316.13C359.158 311.11 367.088 305.931 372.971 304.972C381.044 303.645 379.621 308.792 378.406 314.595C384.561 317.121 383.985 308.313 388.733 307.753C392.522 307.306 395.479 311.542 398.948 312.613C401.49 313.396 403.888 312.405 406.222 312.517C415.51 312.949 424.367 321.422 430.969 327.432C433.463 329.703 434.998 332.436 438.259 333.715C440.657 334.658 444.462 333.363 446.652 334.578C448.858 335.809 452.375 341.756 452.151 344.698C451.735 349.893 445.021 350.677 443.902 354.641C442.639 359.181 448.042 362.459 452.343 362.091C455.572 361.819 456.419 359.117 459.121 359.054C460.128 359.038 460.991 358.59 462.078 359.022C464.716 360.077 463.693 362.315 464.844 363.146C468.121 365.528 472.486 364.425 476.386 365.336C484.236 367.159 482.493 373.457 490.166 374.736C491.301 389.316 478.065 396.062 473.94 408.947C471.462 416.684 468.137 418.97 461.903 424.07C455.508 429.298 450.408 435.101 443.103 439.145C436.516 442.79 429.051 445.572 423.551 450.719C418.452 455.483 417.301 457.849 410.155 459.592C406.702 460.439 403.648 460.103 402.066 463.253C400.003 467.313 402.593 468.736 397.813 471.677C392.762 474.779 385.584 471.837 380.372 474.363C379.189 474.923 379.173 476.553 378.406 477.001C376.807 477.928 374.106 476.905 372.683 478.088C371.5 479.079 371.468 482.276 370.86 483.795C369.517 487.136 368.814 487.967 366.144 490.637C362.212 494.586 356.281 499.797 351.661 502.915C444.621 490.813 522.107 419.034 541.115 322.908C540.492 320.287 540.012 318.017 539.916 316.929C539.596 313.301 540.028 296.067 543.481 284.205C544.136 281.967 544.84 279.873 545.543 277.971C545.623 226.75 528.678 178.807 499.662 140.472C495.138 140.808 492.069 138.746 488.936 142.087V142.135ZM410.139 115.741C410.075 118.89 412.025 120.585 414.935 120.329C416.821 127.411 407.245 121.464 405.279 120.441C401.506 118.475 379.093 114.43 380.1 109.682C380.804 106.373 385.776 108.403 385.52 104.119C385.328 100.938 378.933 96.8293 376.855 95.4385C372.715 92.6888 360.229 91.7137 358.199 87.2854C355.961 82.3936 362.308 80.9069 366.192 80.827C375.432 80.6191 381.619 88.1327 389.309 90.8984C396.007 96.3337 417.445 105.062 419.683 116.269C416.661 116.189 413.128 115.134 410.171 115.725L410.139 115.741ZM361.62 275.221C360.885 277.171 358.807 277.235 357.16 275.845C357.4 273.255 360.181 274.374 362.052 274.55L361.62 275.221ZM352.38 260.897L344.323 258.931C341.861 257.636 334.411 259.171 335.467 254.695C340.95 254.215 349.311 254.615 354.538 256.901C357.672 258.276 359.19 261.185 362.26 262.784C365.153 264.27 367.072 264.206 368.223 267.516C361.7 268.363 358.199 261.601 352.38 260.897ZM388.669 275.637C387.406 276.516 386.783 279.218 385.584 280.433C384.88 276.164 380.404 276.052 378.486 272.999C379.701 270.713 382.131 271.72 384.289 271.928L387.102 272.599C389.325 273.207 394.552 272.919 395.064 275.397C393.209 275.573 390.396 274.454 388.685 275.637H388.669ZM402.226 280.033C397.989 283.95 400.019 277.459 400.099 275.445L399.316 276.084C400.883 273.335 405.567 276.948 402.226 280.033ZM440.241 174.379C436.772 168.384 441.472 166.13 443.247 160.311L445.309 161.254C442.863 171.486 449.449 174.603 455.908 180.326C450.68 179.91 443.31 179.703 440.241 174.379Z" fill="#2181F1"/>
<path d="M447.678 90.9623C446.687 90.2909 445.696 89.6194 444.705 88.964C445.648 89.6994 446.623 90.3708 447.678 90.9623Z" fill="#2181F1"/>
<path d="M353.195 402.265C348.878 399.403 343.363 396.781 342.964 391.33C342.708 387.701 344.498 386.23 343.139 382.473C342.02 379.388 339.766 377.23 337.384 375.008C332.061 370.068 326.705 368.997 334.219 363.993C336.889 362.219 339.447 363.034 338.935 358.926C338.487 355.329 334.858 355.089 335.018 350.341C335.13 347.032 338.056 340.701 340.725 338.399C343.123 336.321 345.601 337.456 347.983 335.969C351.948 333.491 351.836 327.049 352.971 321.725L345.921 315.203L336.377 314.164L321.91 302.542L315.803 292.518L301.959 287.403L291.04 275.349L278.235 273.958L246.838 258.275L243.305 237.813L229.045 223.297L219.293 207.119L215.744 206.735L228.901 231.354L232.482 238.069L213.154 217.239L205.929 197.735L193.187 182.58L195.569 154.14L205.193 145.108L189.031 144.788L185.53 133.966L179.631 128.642L174.819 134.957L171.318 122.344L165.243 123.175C132.567 157.929 110.41 203.522 104.799 255.014C91.2744 378.988 178.656 490.221 299.976 503.458C313.469 504.929 326.817 505.121 339.894 504.146C338.423 503.394 337.065 502.275 335.977 500.757C329.535 491.804 339.047 488.991 342.436 482.212C346.704 473.66 345.825 464.579 351.069 455.995C356.408 447.234 357.383 436.204 366.751 425.828C368.158 423.223 371.947 414.942 370.396 411.76C368.366 407.62 357.383 405.03 353.179 402.249L353.195 402.265Z" fill="#2181F1"/>
<path d="M539.882 316.978C539.978 318.081 540.458 320.351 541.081 322.956C542.376 316.402 543.415 309.752 544.151 302.989C545.062 294.597 545.51 286.268 545.51 278.019C544.79 279.921 544.087 282.015 543.447 284.253C539.994 296.115 539.547 313.333 539.882 316.978Z" fill="white"/>
<path d="M447.673 90.9624C446.618 90.3869 445.643 89.6995 444.7 88.9641C440.911 86.4702 437.058 84.0883 433.11 81.8342C429.593 81.1947 425.117 81.2107 422.191 81.0029C417.475 80.6512 413.239 81.1947 408.715 81.7063C404.142 82.2178 396.613 80.0597 393 82.01C395.446 84.6797 397.3 89.076 401.377 88.9961C413.095 89.9872 421.488 97.6607 428.985 100.043C438.385 103.032 441.678 99.8188 441.343 110.498C446.171 111.153 453.924 116.285 455.746 120.969C451.126 123.207 456.754 124.853 458.72 126.132C466.17 131.008 470.294 139.497 477.856 144.245C480.078 145.636 485.145 148.449 487.863 146.115C488.774 145.332 488.263 142.854 488.918 142.151C492.051 138.81 495.121 140.872 499.645 140.536C485.129 121.352 467.592 104.567 447.673 90.9784V90.9624Z" fill="white"/>
<path d="M362.259 262.784C359.189 261.201 357.686 258.275 354.537 256.901C349.31 254.615 340.949 254.215 335.465 254.694C334.41 259.171 341.86 257.636 344.322 258.931L352.379 260.897C358.182 261.601 361.699 268.379 368.221 267.516C367.054 264.19 365.136 264.27 362.259 262.784Z" fill="white"/>
<path d="M387.103 272.6L384.29 271.928C382.148 271.704 379.702 270.713 378.487 272.999C380.405 276.053 384.865 276.18 385.585 280.433C386.784 279.202 387.423 276.5 388.67 275.637C390.381 274.454 393.194 275.573 395.049 275.397C394.537 272.935 389.31 273.207 387.087 272.6H387.103Z" fill="white"/>
<path d="M399.316 276.084L400.1 275.445C400.02 277.443 397.974 283.95 402.226 280.033C405.567 276.948 400.883 273.335 399.316 276.084Z" fill="white"/>
<path d="M357.157 275.828C358.804 277.219 360.882 277.155 361.617 275.205L362.049 274.534C360.179 274.358 357.397 273.239 357.157 275.828Z" fill="white"/>
<path d="M476.354 365.4C472.438 364.489 468.089 365.592 464.812 363.21C463.661 362.363 464.7 360.141 462.047 359.085C460.959 358.654 460.08 359.085 459.089 359.117C456.387 359.181 455.54 361.883 452.311 362.155C447.995 362.522 442.591 359.261 443.87 354.705C444.973 350.741 451.703 349.957 452.119 344.762C452.359 341.82 448.842 335.857 446.62 334.642C444.43 333.427 440.625 334.706 438.227 333.779C434.966 332.5 433.447 329.766 430.937 327.496C424.335 321.486 415.494 313.029 406.19 312.581C403.856 312.469 401.458 313.46 398.916 312.677C395.447 311.606 392.49 307.37 388.701 307.817C383.953 308.377 384.529 317.185 378.374 314.659C379.589 308.872 381.012 303.725 372.939 305.036C367.072 305.995 359.142 311.158 355.306 316.194L357.096 320.095L356.553 325.066L352.988 321.757C351.853 327.081 351.965 333.523 348 336.001C345.618 337.504 343.14 336.353 340.742 338.431C338.072 340.733 335.147 347.064 335.035 350.373C334.875 355.105 338.504 355.361 338.952 358.958C339.463 363.05 336.905 362.235 334.236 364.025C326.722 369.029 332.093 370.084 337.401 375.04C339.783 377.262 342.037 379.42 343.156 382.505C344.515 386.246 342.724 387.733 342.98 391.362C343.38 396.813 348.895 399.419 353.211 402.297C357.416 405.078 368.399 407.684 370.429 411.808C371.995 414.99 368.191 423.271 366.784 425.876C357.4 436.236 356.441 447.282 351.101 456.043C345.858 464.627 346.753 473.724 342.469 482.26C339.08 489.039 329.568 491.852 336.01 500.804C337.097 502.323 338.456 503.442 339.927 504.194C343.859 503.906 347.76 503.49 351.645 502.979C356.265 499.861 362.196 494.65 366.128 490.701C368.798 488.031 369.502 487.2 370.844 483.859C371.452 482.34 371.468 479.143 372.667 478.152C374.09 476.969 376.791 478.008 378.39 477.065C379.157 476.617 379.173 474.986 380.356 474.427C385.568 471.917 392.746 474.859 397.797 471.741C402.577 468.8 400.004 467.377 402.05 463.316C403.648 460.167 406.702 460.487 410.139 459.656C417.285 457.913 418.436 455.563 423.535 450.783C429.035 445.636 436.5 442.854 443.087 439.209C450.393 435.164 455.492 429.361 461.887 424.134C468.121 419.034 471.431 416.748 473.924 409.011C478.049 396.142 491.286 389.38 490.151 374.8C482.477 373.521 484.22 367.222 476.37 365.4H476.354Z" fill="white"/>
<path d="M419.49 130.369L401.969 134.941C386.622 122.471 374.872 113.599 374.872 113.599L367.278 119.642L373.673 124.661L372.57 134.749L365.264 138.138C365.264 138.138 367.71 147.042 359.013 147.538C350.317 148.034 349.581 134.989 348.814 132.159C348.047 129.329 308.465 122.583 313.9 112.384C319.335 102.185 319.111 94.2394 318.968 95.6622C318.824 96.9411 312.173 96.3336 302.757 93.2163C297.818 92.8007 292.638 92.1772 288.034 91.25C282.087 92.417 275.82 95.5023 265.893 97.085C249.779 99.6428 263.447 93.0724 263.447 93.0724C263.447 93.0724 271.344 83.2888 279.945 73.7929C288.546 64.297 274.829 67.83 269.554 70.132C264.262 72.434 254.479 76.3987 250.594 75.6153C246.725 74.832 235.727 73.2813 225.463 78.2691C215.2 83.2728 227.414 83.5126 232.785 83.7524C238.157 83.9762 238.364 85.4469 238.54 90.3388C238.732 95.2466 224.264 92.5289 218.925 91.9534C214.785 91.5058 207.591 91.3779 199.47 93.4561C187.128 102.169 175.666 112.144 165.259 123.223L171.334 122.391L174.835 135.005L179.647 128.69L185.545 134.013L189.046 144.836L205.209 145.156L195.585 154.188L193.203 182.628L205.944 197.783L213.17 217.286L232.497 238.117L228.916 231.402L215.76 206.783L219.309 207.167L229.06 223.345L243.32 237.861L246.853 258.323L278.25 274.006L291.055 275.397L301.974 287.451L315.818 292.566L321.925 302.59L336.393 314.212L345.937 315.251L352.987 321.773C353.402 319.823 353.978 318.032 354.985 316.626C355.081 316.482 355.209 316.338 355.305 316.194L353.258 311.75L341.237 310.439L330.126 303.469L338.343 296.451L332.3 283.55L313.436 281.488L314.108 275.397L321.254 262.656L308.305 256.005L295.947 268.571L283.558 258.547L278.81 229.5L301.047 221.843L310.799 226.511L316.873 223.569L330.702 222.194L344.242 242.305L351.628 215.112C351.628 215.112 365.2 209.389 367.087 206.719C368.957 204.05 367.246 197.383 368.557 193.211C369.884 189.039 379.236 192.939 384.368 192.06C389.499 191.181 391.45 179.878 397.077 179.766C402.688 179.655 400.802 186.657 400.802 186.657C400.802 186.657 424.813 184.243 431.112 182.772C437.395 181.301 425.916 174.283 425.916 174.283C425.916 174.283 418.563 169.167 415.237 169.519C411.912 169.871 401.409 168.016 401.409 168.016L407.5 161.478C407.5 161.478 437.586 159.72 441.615 160.167C445.659 160.615 442.238 154.476 442.238 154.476L419.506 130.401L419.49 130.369Z" fill="white"/>
<path d="M354.969 316.594C353.962 318 353.387 319.791 352.971 321.741L356.536 325.05L357.08 320.079L355.289 316.178C355.177 316.322 355.065 316.466 354.969 316.61V316.594Z" fill="white"/>
<path d="M445.309 161.27L443.247 160.327C441.473 166.146 436.773 168.4 440.242 174.395C443.311 179.719 450.697 179.926 455.908 180.342C449.45 174.635 442.864 171.518 445.309 161.27Z" fill="white"/>
<path d="M419.651 116.285C417.428 105.078 395.975 96.3497 389.276 90.9144C381.587 88.1328 375.4 80.6352 366.16 80.843C362.275 80.9229 355.929 82.4096 358.167 87.3015C360.197 91.7297 372.683 92.7049 376.823 95.4545C378.917 96.8453 385.296 100.954 385.488 104.135C385.743 108.419 380.772 106.389 380.068 109.698C379.061 114.446 401.474 118.491 405.247 120.457C407.197 121.48 416.789 127.427 414.903 120.345C411.993 120.601 410.043 118.906 410.107 115.757C413.064 115.166 416.597 116.221 419.619 116.301L419.651 116.285Z" fill="white"/>
<path d="M353.29 67.0147C343.731 65.9756 334.171 64.8565 324.595 63.8814C318.584 63.2579 313.548 64.8566 307.745 65.7198C310.495 72.5939 324.547 71.0113 330.862 75.1198C335.498 78.1252 340.357 82.3936 344.002 86.534C340.229 90.6425 332.188 86.8218 327.76 85.7028C321.19 84.0402 314.156 82.0419 307.298 82.1378C303.205 82.1858 299.672 84.0721 295.803 84.3759C288.705 84.9514 280.073 80.2194 273.327 82.5215C273.215 86.8538 279.689 89.5555 288.018 91.234C291.711 90.4987 295.292 90.4987 299.528 92.0813C300.631 92.497 301.686 92.8487 302.726 93.2004C312.941 94.0636 322.229 94.0317 323.572 94.0476C322.996 96.014 322.101 96.9092 319.895 96.8133C320.247 101.05 327.712 103.24 331.021 105.734C330.846 105.91 330.702 106.101 330.558 106.309C335.785 105.782 340.837 104.103 346.017 103.304C342.212 101.369 337.927 100.522 334.171 98.5078C338.407 98.2201 343.587 99.1793 347.535 97.5007C347.184 91.5058 358.198 85.2232 348.862 80.5711C358.15 76.2868 373.193 75.5354 383.441 75.9191C388.332 76.1109 393.608 78.397 390.235 72.1463C379.94 67.0946 364.481 68.2616 353.274 67.0307L353.29 67.0147Z" fill="white"/>
<path d="M288.037 91.2341C292.641 92.1613 297.804 92.7848 302.76 93.2004C301.721 92.8487 300.666 92.481 299.563 92.0814C295.31 90.5147 291.745 90.4987 288.053 91.2341H288.037Z" fill="white"/>
<path d="M367.081 124.933C366.761 135.868 370.406 152.19 382.38 176.489C394.337 152.19 397.998 135.884 397.678 124.933C397.103 105.43 367.672 105.43 367.081 124.933ZM382.38 135.388C377.328 135.388 373.235 131.296 373.235 126.244C373.235 121.192 377.328 117.1 382.38 117.1C387.431 117.1 391.524 121.192 391.524 126.244C391.524 131.296 387.431 135.388 382.38 135.388Z" fill="#F73A8A"/>
<path d="M456.078 328.775C452.369 328.775 448.596 328.711 444.839 328.599C443.96 328.567 443.256 327.832 443.288 326.953C443.32 326.074 444.04 325.386 444.935 325.402C448.66 325.514 452.401 325.562 456.078 325.578C456.957 325.578 457.676 326.297 457.676 327.177C457.676 328.056 456.957 328.775 456.078 328.775ZM467.268 328.647C466.405 328.647 465.685 327.96 465.669 327.097C465.653 326.217 466.341 325.482 467.22 325.45C471.009 325.354 474.75 325.21 478.347 325.003C479.274 324.907 479.977 325.626 480.025 326.505C480.073 327.384 479.402 328.136 478.522 328.184C474.893 328.392 471.105 328.536 467.284 328.631H467.236L467.268 328.647ZM433.713 328.152C433.713 328.152 433.649 328.152 433.633 328.152C429.972 327.96 426.199 327.72 422.426 327.432C421.547 327.368 420.892 326.601 420.956 325.722C421.019 324.843 421.787 324.171 422.666 324.251C426.423 324.523 430.164 324.763 433.793 324.955C434.672 325.003 435.359 325.754 435.311 326.633C435.263 327.48 434.56 328.152 433.713 328.152ZM489.617 327.4C488.802 327.4 488.098 326.777 488.018 325.946C487.938 325.066 488.594 324.283 489.473 324.219C493.23 323.883 496.955 323.5 500.552 323.052C501.431 322.924 502.23 323.564 502.342 324.443C502.454 325.322 501.83 326.122 500.951 326.233C497.338 326.681 493.566 327.081 489.761 327.416C489.713 327.416 489.665 327.416 489.617 327.416V327.4ZM411.396 326.473C411.396 326.473 411.3 326.473 411.236 326.473C407.559 326.122 403.802 325.722 400.077 325.274C399.198 325.178 398.575 324.379 398.671 323.5C398.766 322.621 399.566 321.981 400.445 322.093C404.154 322.525 407.895 322.924 411.54 323.292C412.419 323.372 413.058 324.155 412.978 325.034C412.898 325.866 412.195 326.473 411.396 326.473ZM511.822 324.619C511.055 324.619 510.383 324.059 510.239 323.276C510.095 322.413 510.687 321.581 511.55 321.438C515.291 320.814 518.968 320.127 522.469 319.375C523.332 319.183 524.179 319.743 524.371 320.606C524.547 321.47 524.004 322.317 523.14 322.509C519.575 323.26 515.851 323.963 512.078 324.587C511.998 324.587 511.902 324.603 511.822 324.603V324.619ZM389.175 323.851C389.175 323.851 389.031 323.851 388.951 323.851C385.274 323.34 381.581 322.796 377.856 322.205C376.977 322.061 376.386 321.246 376.529 320.382C376.673 319.503 377.473 318.928 378.352 319.056C382.061 319.631 385.738 320.175 389.398 320.686C390.278 320.814 390.885 321.613 390.757 322.493C390.645 323.292 389.958 323.867 389.175 323.867V323.851ZM367.065 320.366C366.97 320.366 366.874 320.366 366.794 320.335C363.133 319.695 359.456 319.008 355.763 318.272C354.9 318.096 354.324 317.265 354.5 316.402C354.676 315.539 355.491 314.963 356.371 315.139C360.047 315.858 363.708 316.546 367.337 317.185C368.201 317.345 368.792 318.16 368.632 319.04C368.504 319.823 367.817 320.366 367.065 320.366ZM533.707 319.935C533.004 319.935 532.364 319.471 532.173 318.752C531.949 317.905 532.444 317.025 533.308 316.801C536.969 315.826 540.533 314.755 543.923 313.604C544.754 313.332 545.665 313.78 545.953 314.611C546.241 315.443 545.777 316.354 544.946 316.642C541.493 317.793 537.864 318.896 534.139 319.887C533.995 319.919 533.867 319.935 533.723 319.935H533.707ZM345.1 316.066C344.988 316.066 344.876 316.066 344.765 316.034C341.136 315.251 337.475 314.436 333.814 313.588C332.951 313.396 332.423 312.533 332.615 311.67C332.807 310.807 333.67 310.263 334.533 310.471C338.178 311.318 341.807 312.133 345.436 312.901C346.299 313.093 346.843 313.94 346.667 314.803C346.507 315.555 345.836 316.066 345.1 316.066ZM554.905 312.789C554.282 312.789 553.69 312.421 553.434 311.814C553.099 310.998 553.482 310.055 554.298 309.72C557.815 308.249 561.172 306.666 564.289 305.02C565.073 304.604 566.032 304.908 566.447 305.691C566.863 306.474 566.559 307.434 565.776 307.849C562.579 309.544 559.126 311.174 555.529 312.677C555.321 312.757 555.113 312.805 554.905 312.805V312.789ZM323.311 310.998C323.183 310.998 323.055 310.998 322.927 310.95C319.314 310.039 315.701 309.112 312.072 308.137C311.225 307.913 310.714 307.034 310.937 306.171C311.161 305.323 312.04 304.812 312.904 305.036C316.517 306.011 320.114 306.938 323.711 307.833C324.574 308.041 325.085 308.92 324.878 309.768C324.702 310.487 324.046 310.982 323.327 310.982L323.311 310.998ZM301.697 305.195C301.553 305.195 301.41 305.179 301.25 305.131L300.834 305.02C297.349 304.028 293.912 303.005 290.475 301.95C289.628 301.694 289.148 300.799 289.404 299.952C289.66 299.105 290.555 298.625 291.402 298.881C294.807 299.92 298.244 300.943 301.697 301.934L302.113 302.046C302.96 302.286 303.456 303.181 303.216 304.028C303.008 304.732 302.369 305.195 301.681 305.195H301.697ZM574.616 302.27C574.105 302.27 573.609 302.03 573.289 301.567C572.794 300.831 572.986 299.84 573.705 299.344C576.822 297.218 579.732 294.948 582.322 292.598C582.977 292.007 583.984 292.055 584.576 292.71C585.167 293.366 585.119 294.373 584.464 294.964C581.762 297.426 578.741 299.792 575.496 301.998C575.224 302.19 574.904 302.27 574.6 302.27H574.616ZM280.292 298.657C280.132 298.657 279.956 298.625 279.796 298.577C276.215 297.426 272.666 296.243 269.149 295.044C268.318 294.756 267.87 293.845 268.158 293.014C268.446 292.183 269.357 291.735 270.188 292.023C273.689 293.222 277.222 294.389 280.787 295.556C281.634 295.827 282.082 296.723 281.81 297.57C281.586 298.241 280.963 298.673 280.292 298.673V298.657ZM259.11 291.399C258.934 291.399 258.742 291.367 258.566 291.303C255.033 290.024 251.516 288.713 248.047 287.387C247.216 287.067 246.816 286.14 247.12 285.324C247.44 284.493 248.367 284.077 249.182 284.397C252.635 285.724 256.12 287.019 259.653 288.282C260.484 288.586 260.916 289.497 260.612 290.328C260.373 290.984 259.765 291.383 259.11 291.383V291.399ZM591.018 287.195C590.683 287.195 590.331 287.083 590.043 286.859C589.34 286.316 589.228 285.308 589.771 284.621C592.042 281.695 593.976 278.626 595.526 275.445C595.91 274.645 596.869 274.326 597.669 274.709C598.468 275.093 598.788 276.052 598.404 276.852C596.758 280.209 594.695 283.486 592.297 286.571C591.978 286.971 591.514 287.195 591.034 287.195H591.018ZM238.199 283.406C238.008 283.406 237.8 283.374 237.608 283.294C234.107 281.887 230.654 280.449 227.233 279.01C226.418 278.658 226.034 277.731 226.386 276.916C226.737 276.1 227.664 275.717 228.48 276.068C231.885 277.507 235.322 278.93 238.791 280.337C239.606 280.672 240.006 281.6 239.67 282.415C239.414 283.038 238.823 283.422 238.184 283.422L238.199 283.406ZM217.593 274.645C217.369 274.645 217.145 274.598 216.938 274.502C213.549 272.983 210.111 271.4 206.738 269.818C205.939 269.434 205.603 268.491 205.971 267.691C206.355 266.892 207.298 266.556 208.097 266.924C211.454 268.507 214.859 270.073 218.233 271.592C219.032 271.96 219.4 272.903 219.032 273.702C218.76 274.294 218.185 274.645 217.577 274.645H217.593ZM600.738 267.244C600.61 267.244 600.482 267.244 600.37 267.196C599.507 266.988 598.98 266.125 599.187 265.277C600.019 261.808 600.466 258.196 600.514 254.535C600.514 253.655 601.202 252.936 602.145 252.968C603.024 252.968 603.728 253.703 603.712 254.599C603.648 258.483 603.168 262.32 602.289 266.029C602.113 266.764 601.457 267.26 600.738 267.26V267.244ZM197.354 265.086C197.115 265.086 196.875 265.038 196.651 264.926C193.31 263.263 189.937 261.537 186.659 259.826C185.876 259.41 185.572 258.451 185.988 257.668C186.404 256.885 187.363 256.581 188.146 256.997C191.423 258.707 194.765 260.418 198.09 262.064C198.873 262.464 199.209 263.423 198.809 264.206C198.537 264.766 197.962 265.086 197.37 265.086H197.354ZM177.531 254.679C177.275 254.679 177.004 254.615 176.764 254.487C173.471 252.664 170.194 250.794 167.012 248.923C166.245 248.476 165.989 247.501 166.437 246.733C166.884 245.966 167.86 245.71 168.627 246.158C171.792 248.012 175.053 249.867 178.315 251.673C179.082 252.105 179.37 253.08 178.938 253.847C178.65 254.375 178.107 254.679 177.531 254.679ZM601.17 245.023C600.402 245.023 599.731 244.479 599.603 243.712C598.996 240.275 598.052 236.726 596.805 233.161C596.518 232.33 596.949 231.418 597.781 231.131C598.612 230.843 599.523 231.275 599.811 232.106C601.106 235.831 602.097 239.539 602.736 243.152C602.896 244.016 602.321 244.847 601.441 245.007C601.346 245.023 601.25 245.039 601.154 245.039L601.17 245.023ZM158.204 243.36C157.916 243.36 157.628 243.28 157.356 243.12C154.127 241.122 150.946 239.076 147.893 237.062C147.157 236.582 146.949 235.591 147.445 234.839C147.925 234.104 148.916 233.896 149.667 234.392C152.704 236.39 155.854 238.42 159.067 240.403C159.818 240.866 160.042 241.857 159.579 242.609C159.275 243.104 158.747 243.36 158.22 243.36H158.204ZM139.516 231.035C139.196 231.035 138.876 230.939 138.604 230.747C135.503 228.573 132.45 226.351 129.508 224.145C128.805 223.617 128.661 222.61 129.189 221.906C129.716 221.203 130.723 221.059 131.427 221.587C134.336 223.777 137.374 225.983 140.443 228.141C141.162 228.653 141.338 229.644 140.827 230.363C140.523 230.811 140.027 231.051 139.516 231.051V231.035ZM593.928 223.937C593.336 223.937 592.777 223.617 592.489 223.058C590.922 219.908 589.084 216.679 587.054 213.466C586.574 212.714 586.798 211.739 587.549 211.26C588.301 210.78 589.276 211.004 589.755 211.755C591.85 215.048 593.72 218.374 595.351 221.635C595.75 222.418 595.431 223.377 594.631 223.777C594.407 223.889 594.152 223.937 593.912 223.937H593.928ZM121.643 217.574C121.291 217.574 120.94 217.462 120.636 217.223C117.678 214.841 114.785 212.395 112.019 209.965C111.348 209.389 111.284 208.366 111.875 207.711C112.451 207.055 113.474 206.975 114.129 207.567C116.863 209.965 119.725 212.379 122.634 214.729C123.322 215.288 123.433 216.295 122.874 216.983C122.554 217.366 122.091 217.574 121.627 217.574H121.643ZM582.034 205.009C581.554 205.009 581.075 204.785 580.755 204.369C578.613 201.524 576.263 198.63 573.769 195.769C573.194 195.097 573.258 194.09 573.929 193.515C574.6 192.939 575.608 193.003 576.183 193.675C578.709 196.6 581.107 199.542 583.297 202.451C583.825 203.155 583.697 204.162 582.977 204.689C582.69 204.913 582.354 205.009 582.018 205.009H582.034ZM104.825 202.803C104.426 202.803 104.026 202.659 103.722 202.355C100.957 199.701 98.2869 197 95.793 194.346C95.1855 193.707 95.2175 192.683 95.857 192.092C96.4964 191.484 97.5196 191.516 98.1111 192.156C100.573 194.778 103.195 197.431 105.928 200.053C106.568 200.661 106.584 201.684 105.976 202.307C105.657 202.627 105.241 202.803 104.825 202.803ZM567.407 188.095C566.991 188.095 566.575 187.935 566.255 187.616C563.746 185.026 561.06 182.42 558.31 179.846C557.671 179.239 557.623 178.232 558.23 177.592C558.838 176.953 559.845 176.905 560.484 177.512C563.282 180.118 566 182.772 568.542 185.378C569.149 186.017 569.149 187.024 568.51 187.632C568.206 187.935 567.79 188.079 567.391 188.079L567.407 188.095ZM89.5424 186.465C89.0788 186.465 88.6311 186.273 88.3114 185.889C85.8335 182.916 83.5155 179.894 81.4053 176.937C80.8937 176.217 81.0536 175.226 81.773 174.715C82.4924 174.203 83.4835 174.363 84.0111 175.082C86.0733 177.976 88.3594 180.917 90.7733 183.843C91.3328 184.514 91.2369 185.538 90.5655 186.097C90.2618 186.337 89.9101 186.465 89.5424 186.465ZM551.036 172.828C550.669 172.828 550.301 172.7 549.997 172.445C547.248 170.095 544.354 167.729 541.397 165.395C540.709 164.851 540.581 163.844 541.125 163.157C541.668 162.469 542.676 162.341 543.363 162.885C546.353 165.251 549.294 167.649 552.06 170.015C552.731 170.59 552.811 171.597 552.235 172.269C551.916 172.637 551.468 172.828 551.021 172.828H551.036ZM76.5934 168.24C76.0499 168.24 75.5063 167.953 75.2186 167.457C73.2363 164.084 71.4778 160.695 69.9751 157.386C69.6074 156.586 69.9751 155.627 70.7744 155.275C71.5737 154.908 72.5329 155.275 72.8846 156.075C74.3234 159.288 76.0339 162.565 77.9682 165.842C78.4159 166.61 78.1601 167.585 77.4087 168.032C77.1529 168.176 76.8812 168.256 76.5934 168.256V168.24Z" fill="#2735AC"/>
<path d="M259.27 0H71.8457V104.263H259.27V0Z" fill="#45D8F9"/>
<path d="M116.511 11.718H83.5314C79.295 11.718 79.2791 18.3204 83.5314 18.3204H116.511C120.748 18.3204 120.764 11.718 116.511 11.718Z" fill="white"/>
<path d="M171.315 11.718H152.467C148.231 11.718 148.215 18.3204 152.467 18.3204H171.315C175.552 18.3204 175.568 11.718 171.315 11.718Z" fill="white"/>
<path d="M131.139 22.1252H83.5314C79.295 22.1252 79.2791 28.7276 83.5314 28.7276H131.139C135.375 28.7276 135.391 22.1252 131.139 22.1252Z" fill="white"/>
<path d="M171.315 22.1252H152.467C148.231 22.1252 148.215 28.7276 152.467 28.7276H171.315C175.552 28.7276 175.568 22.1252 171.315 22.1252Z" fill="white"/>
<path d="M121.467 32.5322H83.5314C79.295 32.5322 79.2791 39.1346 83.5314 39.1346H121.467C125.703 39.1346 125.719 32.5322 121.467 32.5322Z" fill="white"/>
<path d="M171.314 32.5322H159.66C155.423 32.5322 155.407 39.1346 159.66 39.1346H171.314C175.55 39.1346 175.566 32.5322 171.314 32.5322Z" fill="white"/>
<path d="M171.314 85.3511H159.66C155.423 85.3511 155.407 91.9534 159.66 91.9534H171.314C175.55 91.9534 175.566 85.3511 171.314 85.3511Z" fill="white"/>
<path d="M215.771 94.959C215.771 94.959 215.787 95.0389 215.802 95.0869H217.225C217.225 95.0869 217.257 95.007 217.257 94.959V74.8801H215.771V94.959Z" fill="white"/>
<path d="M232.861 94.959C232.861 94.959 232.877 95.0389 232.893 95.0869H234.316C234.316 95.0869 234.348 95.007 234.348 94.959V74.8801H232.861V94.959Z" fill="white"/>
<path d="M222.58 94.959C222.58 94.959 222.596 95.0389 222.612 95.0869H224.035C224.035 95.0869 224.067 95.007 224.067 94.959V74.8801H222.58V94.959Z" fill="white"/>
<path d="M224.726 94.959C224.726 94.959 224.742 95.0389 224.758 95.0869H226.181C226.181 95.0869 226.213 95.007 226.213 94.959V74.8801H224.726V94.959Z" fill="white"/>
<path d="M230.207 94.959C230.207 94.959 230.223 95.0389 230.239 95.0869H231.661C231.661 95.0869 231.693 95.007 231.693 94.959V74.8801H230.207V94.959Z" fill="white"/>
<path d="M218.183 94.959C218.183 94.959 218.215 95.0389 218.215 95.0869H221.124C221.124 95.0869 221.156 95.007 221.156 94.959V74.8801H218.167V94.959H218.183Z" fill="white"/>
<path d="M226.641 94.959C226.641 94.959 226.673 95.0389 226.673 95.0869H229.583C229.583 95.0869 229.615 95.007 229.615 94.959V74.8801H226.625V94.959H226.641Z" fill="white"/>
<path d="M241.301 94.959C241.301 94.959 241.317 95.0389 241.333 95.0869H242.756C242.756 95.0869 242.788 95.007 242.788 94.959V74.8801H241.301V94.959Z" fill="white"/>
<path d="M238.565 94.959C238.565 94.959 238.581 95.0389 238.597 95.0869H240.02C240.02 95.0869 240.052 95.007 240.052 94.959V74.8801H238.565V94.959Z" fill="white"/>
<path d="M235.098 94.959C235.098 94.959 235.13 95.0389 235.13 95.0869H238.039C238.039 95.0869 238.071 95.007 238.071 94.959V74.8801H235.082V94.959H235.098Z" fill="white"/>
<path d="M223.812 22.7484H36.3882V127.011H223.812V22.7484Z" fill="#4AB5F9"/>
<path d="M81.0538 34.4664H48.0739C43.8375 34.4664 43.8215 41.0688 48.0739 41.0688H81.0538C85.2901 41.0688 85.3061 34.4664 81.0538 34.4664Z" fill="white"/>
<path d="M135.858 34.4664H117.01C112.774 34.4664 112.758 41.0688 117.01 41.0688H135.858C140.094 41.0688 140.11 34.4664 135.858 34.4664Z" fill="white"/>
<path d="M95.6813 44.8737H48.0739C43.8375 44.8737 43.8215 51.476 48.0739 51.476H95.6813C99.9177 51.476 99.9336 44.8737 95.6813 44.8737Z" fill="white"/>
<path d="M135.858 44.8737H117.01C112.774 44.8737 112.758 51.476 117.01 51.476H135.858C140.094 51.476 140.11 44.8737 135.858 44.8737Z" fill="white"/>
<path d="M86.0095 55.2968H48.0739C43.8375 55.2968 43.8215 61.8991 48.0739 61.8991H86.0095C90.2459 61.8991 90.2619 55.2968 86.0095 55.2968Z" fill="white"/>
<path d="M135.856 55.2968H124.202C119.966 55.2968 119.95 61.8991 124.202 61.8991H135.856C140.093 61.8991 140.109 55.2968 135.856 55.2968Z" fill="white"/>
<path d="M135.856 108.1H124.202C119.966 108.1 119.95 114.702 124.202 114.702H135.856C140.093 114.702 140.109 108.1 135.856 108.1Z" fill="white"/>
<path d="M180.313 117.724C180.313 117.724 180.329 117.803 180.345 117.851H181.768C181.768 117.851 181.8 117.771 181.8 117.724V97.6447H180.313V117.724Z" fill="white"/>
<path d="M197.39 117.724C197.39 117.724 197.406 117.803 197.422 117.851H198.845C198.845 117.851 198.877 117.771 198.877 117.724V97.6447H197.39V117.724Z" fill="white"/>
<path d="M187.123 117.724C187.123 117.724 187.139 117.803 187.155 117.851H188.577C188.577 117.851 188.609 117.771 188.609 117.724V97.6447H187.123V117.724Z" fill="white"/>
<path d="M189.269 117.724C189.269 117.724 189.285 117.803 189.301 117.851H190.723C190.723 117.851 190.755 117.771 190.755 117.724V97.6447H189.269V117.724Z" fill="white"/>
<path d="M194.749 117.724C194.749 117.724 194.765 117.803 194.781 117.851H196.204C196.204 117.851 196.236 117.771 196.236 117.724V97.6447H194.749V117.724Z" fill="white"/>
<path d="M182.725 117.724C182.725 117.724 182.757 117.803 182.757 117.851H185.667C185.667 117.851 185.699 117.771 185.699 117.724V97.6447H182.709V117.724H182.725Z" fill="white"/>
<path d="M191.184 117.724C191.184 117.724 191.216 117.803 191.216 117.851H194.125C194.125 117.851 194.157 117.771 194.157 117.724V97.6447H191.168V117.724H191.184Z" fill="white"/>
<path d="M205.844 117.724C205.844 117.724 205.86 117.803 205.876 117.851H207.299C207.299 117.851 207.33 117.771 207.33 117.724V97.6447H205.844V117.724Z" fill="white"/>
<path d="M203.108 117.724C203.108 117.724 203.124 117.803 203.14 117.851H204.563C204.563 117.851 204.595 117.771 204.595 117.724V97.6447H203.108V117.724Z" fill="white"/>
<path d="M199.624 117.724C199.624 117.724 199.656 117.803 199.656 117.851H202.566C202.566 117.851 202.598 117.771 202.598 117.724V97.6447H199.608V117.724H199.624Z" fill="white"/>
<path d="M243.187 138.762L67.3208 71.9548C67.3208 71.9548 36.4672 62.6827 28.7777 68.3418C21.8716 79.2126 40.3518 91.1384 40.3518 91.1384L234.378 164.851L242.435 176.49L251.148 179.799L253.002 153.517L253.562 153.725L285.103 131.984L272.506 127.204L243.171 138.746L243.187 138.762Z" fill="#D1D6D0"/>
<path d="M123.625 120.313C123.625 120.313 163.32 211.18 168.515 211.611C173.711 212.027 177.755 205.057 177.755 205.057L161.353 134.653C161.353 134.653 144.312 118.267 123.641 120.329L123.625 120.313Z" fill="white"/>
<path d="M83.5141 89.1559C81.5318 88.4045 79.3257 89.3957 78.5743 91.378C77.823 93.3603 78.8141 95.5664 80.7964 96.3178C82.7787 97.0691 84.9849 96.078 85.7362 94.0957C86.4876 92.1134 85.4964 89.9072 83.5141 89.1559Z" fill="white"/>
<path d="M66.7451 82.7773C64.7628 82.026 62.5567 83.0171 61.8053 84.9994C61.0539 86.9818 62.0451 89.1879 64.0274 89.9392C66.0097 90.6906 68.2158 89.6994 68.9672 87.7171C69.7185 85.7348 68.7274 83.5287 66.7451 82.7773Z" fill="white"/>
<path d="M49.1264 76.0952C47.1441 75.3439 44.938 76.335 44.1866 78.3173C43.4353 80.2996 44.4264 82.5057 46.4087 83.2571C48.3911 84.0085 50.5972 83.0173 51.3485 81.035C52.0999 79.0527 51.1087 76.8466 49.1264 76.0952Z" fill="white"/>
<path d="M100.283 95.5187C98.3009 94.7673 96.0947 95.7585 95.3434 97.7408C94.592 99.7231 95.5832 101.929 97.5655 102.681C99.5478 103.432 101.754 102.441 102.505 100.458C103.257 98.4761 102.265 96.27 100.283 95.5187Z" fill="white"/>
<path d="M119.484 102.824C117.502 102.073 115.296 103.064 114.545 105.046C113.793 107.029 114.784 109.235 116.767 109.986C118.749 110.737 120.955 109.746 121.706 107.764C122.458 105.782 121.467 103.576 119.484 102.824Z" fill="white"/>
<path d="M137.006 109.475C135.024 108.723 132.817 109.715 132.066 111.697C131.315 113.679 132.306 115.885 134.288 116.637C136.27 117.388 138.477 116.397 139.228 114.415C139.979 112.432 138.988 110.226 137.006 109.475Z" fill="white"/>
<path d="M156.223 116.78C154.24 116.029 152.034 117.02 151.283 119.002C150.531 120.985 151.523 123.191 153.505 123.942C155.487 124.694 157.693 123.702 158.445 121.72C159.196 119.738 158.205 117.532 156.223 116.78Z" fill="white"/>
<path d="M176.715 124.566C174.733 123.814 172.527 124.805 171.776 126.788C171.024 128.77 172.015 130.976 173.998 131.728C175.98 132.479 178.186 131.488 178.937 129.505C179.689 127.523 178.698 125.317 176.715 124.566Z" fill="white"/>
<path d="M195.915 131.855C193.932 131.104 191.726 132.095 190.975 134.078C190.223 136.06 191.215 138.266 193.197 139.017C195.179 139.769 197.385 138.778 198.137 136.795C198.888 134.813 197.897 132.607 195.915 131.855Z" fill="white"/>
<path d="M213.438 138.522C211.456 137.77 209.25 138.762 208.499 140.744C207.747 142.726 208.738 144.932 210.721 145.684C212.703 146.435 214.909 145.444 215.661 143.462C216.412 141.479 215.421 139.273 213.438 138.522Z" fill="white"/>
<path d="M258.679 464.468C241.606 464.436 224.788 471.901 213.646 484.834C211.696 487.088 214.973 490.398 216.939 488.127C227.074 476.361 242.022 469.407 257.56 469.12C273.259 468.832 290.348 475.706 297.175 490.685C298.406 493.403 302.418 491.037 301.187 488.335C293.897 472.301 275.529 464.484 258.695 464.452L258.679 464.468Z" fill="#0B1B58"/>
<path d="M352.661 527.933C337.954 515.992 332.598 520.244 321.888 500.117C311.193 479.99 302.496 478.152 302.496 478.152H211.949C211.949 478.152 203.253 479.99 192.558 500.117C181.863 520.244 176.508 515.992 161.784 527.933C147.077 539.875 145.062 566.892 145.062 566.892H369.383C369.383 566.892 367.369 539.875 352.661 527.933Z" fill="#2181F1"/>
<path d="M102.156 329.783V387.653C102.156 390.643 106.808 390.643 106.808 387.653V329.783C106.808 326.793 102.156 326.793 102.156 329.783Z" fill="#0B1B58"/>
<path d="M160.026 329.783V387.653C160.026 390.643 164.678 390.643 164.678 387.653V329.783C164.678 326.793 160.026 326.793 160.026 329.783Z" fill="#0B1B58"/>
<path d="M165.926 324.619H99.4868C96.6413 324.619 94.3232 326.937 94.3232 329.783C94.3232 332.628 96.6413 334.946 99.4868 334.946H165.926C168.772 334.946 171.09 332.628 171.09 329.783C171.09 326.937 168.772 324.619 165.926 324.619Z" fill="#4AB5F9"/>
<path d="M160.423 380.427C155.707 377.326 147.043 375.983 139.561 375.408V375.056C139.561 375.056 136.763 374.96 132.703 375.056C128.642 374.944 125.861 375.056 125.861 375.056V375.408C118.395 375.967 109.73 377.31 104.999 380.427C95.5826 386.63 89.0282 389.348 80.4275 392.433C71.8268 395.535 66.3755 400.57 66.3755 400.57V548.092H199.03V400.57C199.03 400.57 193.579 395.535 184.978 392.433C176.378 389.332 169.823 386.614 160.407 380.427H160.423Z" fill="#2181F1"/>
<path d="M86.3708 548.092C81.3191 548.092 77.2266 552.185 77.2266 557.236C77.2266 562.288 81.3191 566.381 86.3708 566.381C91.4224 566.381 95.515 562.288 95.515 557.236C95.515 552.185 91.4224 548.092 86.3708 548.092Z" fill="#0B1B58"/>
<path d="M179.044 548.092C173.992 548.092 169.9 552.185 169.9 557.236C169.9 562.288 173.992 566.381 179.044 566.381C184.096 566.381 188.188 562.288 188.188 557.236C188.188 552.185 184.096 548.092 179.044 548.092Z" fill="#0B1B58"/>
<path d="M132.129 408.212C127.445 408.164 95.2804 408.419 66.3931 425.029V548.092H199.048V425.701C169.873 408.42 136.877 408.148 132.129 408.212Z" fill="#4AB5F9"/>
<path d="M371.209 219.397V322.061C371.209 325.05 375.861 325.05 375.861 322.061V219.397C375.861 216.407 371.209 216.407 371.209 219.397Z" fill="#2736AD"/>
<path d="M422.57 219.397V322.061C422.57 325.05 427.222 325.05 427.222 322.061V219.397C427.222 216.407 422.57 216.407 422.57 219.397Z" fill="#2736AD"/>
<path d="M459.644 313.716H339.187C339.187 313.716 323.569 323.052 322.481 339.806C321.378 356.56 322.481 536.342 322.481 536.342C322.481 536.342 329.228 553.528 353.303 554.343C374.309 555.062 394.58 554.519 399.424 554.375C404.252 554.519 424.522 555.046 445.544 554.343C469.62 553.528 476.366 536.342 476.366 536.342C476.366 536.342 477.469 356.56 476.366 339.806C475.263 323.052 459.66 313.716 459.66 313.716H459.644Z" fill="#0B1B58"/>
<path d="M449.381 565.677C456.533 565.677 462.33 560.767 462.33 554.71C462.33 548.654 456.533 543.744 449.381 543.744C442.23 543.744 436.432 548.654 436.432 554.71C436.432 560.767 442.23 565.677 449.381 565.677Z" fill="#060E2C"/>
<path d="M449.38 559.394C452.435 559.394 454.912 557.297 454.912 554.71C454.912 552.123 452.435 550.026 449.38 550.026C446.326 550.026 443.849 552.123 443.849 554.71C443.849 557.297 446.326 559.394 449.38 559.394Z" fill="#9AE2FB"/>
<path d="M348.045 565.677C355.196 565.677 360.994 560.767 360.994 554.71C360.994 548.654 355.196 543.744 348.045 543.744C340.893 543.744 335.096 548.654 335.096 554.71C335.096 560.767 340.893 565.677 348.045 565.677Z" fill="#060E2C"/>
<path d="M348.042 559.394C351.097 559.394 353.573 557.297 353.573 554.71C353.573 552.123 351.097 550.026 348.042 550.026C344.987 550.026 342.511 552.123 342.511 554.71C342.511 557.297 344.987 559.394 348.042 559.394Z" fill="#9AE2FB"/>
<path d="M453.025 341.372H345.789C340.65 341.372 336.485 345.538 336.485 350.677V526.239C336.485 531.377 340.65 535.543 345.789 535.543H453.025C458.164 535.543 462.329 531.377 462.329 526.239V350.677C462.329 345.538 458.164 341.372 453.025 341.372Z" fill="#2736AD"/>
<path d="M429.495 208.798H369.323C366.542 208.798 364.287 211.052 364.287 213.833V214.361C364.287 217.142 366.542 219.397 369.323 219.397H429.495C432.277 219.397 434.531 217.142 434.531 214.361V213.833C434.531 211.052 432.277 208.798 429.495 208.798Z" fill="#0B1B58"/>
<path d="M462.33 329.766H336.485C334.982 329.766 334.982 332.084 336.485 332.084H462.33C463.832 332.084 463.832 329.766 462.33 329.766Z" fill="#2736AD"/>
<path d="M579.047 478.439C568.912 451.199 560.679 448.705 560.679 448.705H474.96C474.96 448.705 466.727 451.199 456.592 478.439C446.456 505.68 441.389 499.925 427.465 516.103C413.541 532.282 411.638 568.858 411.638 568.858H624.001C624.001 568.858 622.099 532.282 608.174 516.103C594.25 499.925 589.183 505.68 579.047 478.439Z" fill="#FFCD21"/>
<path d="M557.128 448.689C554.538 445.076 548.48 448.545 551.101 452.206C554.842 457.417 558.055 463.316 560.07 469.407C561.365 473.324 562.532 477.976 561.157 482.036C559.382 487.264 553.675 488.687 548.783 489.486C525.427 493.307 504.565 477.4 490.193 460.743C486.453 456.41 482.856 451.822 479.882 446.914C477.564 443.078 471.521 446.579 473.855 450.431C482.888 465.331 496.188 479.127 511.167 487.967C522.806 494.841 536.186 498.406 549.695 496.36C555.833 495.433 562.292 493.467 565.921 488.047C568.91 483.603 569.102 478.104 568.207 472.988C566.704 464.356 562.244 455.755 557.144 448.673L557.128 448.689Z" fill="#FFAE36"/>
<path d="M473.058 514.921C473.058 514.921 473.058 514.984 473.058 515.032C473.058 540.003 494.528 560.258 521.017 560.258C547.507 560.258 568.976 540.003 568.976 515.032C568.976 515 568.976 514.968 568.976 514.921H473.074H473.058Z" fill="#FFAE36"/>
<path d="M293.305 442.55C284.673 442.007 262.612 442.183 248.591 455.931C230.863 473.34 184.902 569.45 184.902 569.45H188.531C192.16 569.45 241.334 476.889 253.819 463.844C263.683 453.549 284.817 451.375 293.305 450.911C301.794 451.375 322.928 453.549 332.792 463.844C345.293 476.889 394.451 569.45 398.08 569.45H401.709C401.709 569.45 355.764 473.34 338.019 455.931C323.999 442.167 301.938 442.007 293.305 442.55Z" fill="#9AE2FB"/>
<path d="M370.967 359.069C360.879 385.99 349.96 437.946 310.746 441.991C295.015 443.605 279.077 443.078 263.346 441.559C254.89 440.744 246.129 437.53 237.56 438.522C236.521 438.65 235.498 438.825 234.475 439.081C230.702 440.008 212.414 447.81 222.182 451.055C230.207 453.725 241.349 452.877 249.774 453.341C264.993 454.188 280.004 453.597 295.223 453.741C310.346 453.884 333.606 456.139 345.181 444.357C359.153 430.129 403.755 314.02 400.525 302.094C397.296 290.152 381.054 332.132 370.967 359.053V359.069Z" fill="#9AE2FB"/>
<path d="M158.526 546.174C158.526 546.174 145.354 554.583 136.241 559.283C127.129 563.983 125.978 565.15 129.271 567.691C132.565 570.233 151.556 569.85 154.658 567.691C157.759 565.533 159.502 568.667 159.502 568.667C159.502 568.667 166.871 570.041 168.422 568.075C169.973 566.125 168.358 552.68 168.358 552.68C168.358 552.68 165.704 545.566 158.542 546.158L158.526 546.174Z" fill="#0B1B58"/>
<path d="M129.061 369.924C121.243 392.609 158.396 492.508 149.507 551.721C149.507 551.721 157.405 546.51 167.748 551.721C167.748 551.721 196.555 471.454 189.777 429.298C182.999 387.142 252.396 388.708 256.968 387.142C261.54 385.575 293.321 364.457 293.321 364.457C293.321 364.457 136.878 347.24 129.077 369.94L129.061 369.924Z" fill="#32838F"/>
<path d="M326.235 232.218C287.516 228.461 259.972 260.785 259.972 260.785C251.787 269.05 233.914 309.64 222.74 323.931C211.565 338.207 165.349 347.096 165.349 347.096C167.523 350.725 169.137 357.007 169.137 357.007C169.137 357.007 226.464 355.505 233.163 354.002C239.861 352.499 261.459 338.975 269.644 330.694C277.829 322.429 283.04 323.931 283.04 323.931C299.426 334.451 290.49 369.029 290.49 369.029C332.182 391.586 357.505 369.029 357.505 369.029C357.505 369.029 354.531 366.024 353.78 349.494C353.028 332.964 367.928 290.872 370.166 274.326C372.404 257.796 364.954 235.991 326.235 232.234V232.218Z" fill="#F73A8A"/>
<path d="M305.474 187.712C300.614 185.186 294.299 185.058 289.152 187.296C285.619 188.847 282.645 191.5 281.095 195.273C276.522 206.416 283.812 221.043 292.013 228.493C293.388 229.74 294.923 230.683 296.553 231.29L298.791 240.754C298.791 240.754 309.055 244.783 313.611 236.15L312.076 226.319C312.556 225.711 313.019 225.072 313.467 224.368C321.156 212.219 318.838 194.666 305.458 187.696L305.474 187.712Z" fill="#FFA39A"/>
<path d="M237.767 345.401C229.134 342.715 217.848 356.128 217.848 356.128C217.848 356.128 230.461 356.799 235.113 354.785C239.765 352.771 241.748 354.785 244.417 356.128C247.071 357.471 251.723 356.128 251.723 356.128C249.069 350.773 251.723 348.087 251.723 348.087C251.723 348.087 246.416 348.087 237.783 345.401H237.767Z" fill="#FFA39A"/>
<path d="M165.348 347.096C162.374 345.593 149.777 350.229 149.777 350.229L152.015 356.991H169.136C169.136 356.991 168.337 348.583 165.348 347.08V347.096Z" fill="#FFA39A"/>
<path d="M317.046 180.342C316.087 178.712 316.822 176.697 316.103 175.003C315.432 173.372 313.849 172.141 312.474 171.134C306.207 166.53 304.497 171.134 299.365 171.134C296.232 171.134 293.227 168.48 290.013 169.967C286.816 171.454 285.505 175.402 282.292 176.905C279.814 178.056 274.555 177.433 274.107 181.141C274.107 181.269 274.075 181.397 274.075 181.509C273.851 184.099 274.666 185.905 272.013 187.824C268.016 190.701 266.881 194.154 267.457 199.909C268.032 205.665 273.723 205.089 275.434 205.665C277.144 206.24 276.569 211.995 278.855 213.722C281.812 215.96 284.066 218.965 286.352 221.843C285.681 219.781 286.64 217.462 286.464 215.336C286.32 213.546 285.281 210.908 286.656 209.341C287.599 208.27 289.358 207.599 290.509 206.736C292.603 205.185 294.442 203.81 295.96 201.62C299.957 195.865 303.378 193.563 304.513 195.865C305.648 198.167 308.51 202.771 311.355 202.771C314.201 202.771 319.636 206.784 317.494 213.706C315.352 220.628 314.361 222.898 314.361 222.898C314.361 222.898 322.194 219.461 322.769 210.828C323.345 202.196 321.634 201.044 324.48 197.591C327.325 194.138 326.19 188.959 324.48 185.506C322.769 182.053 318.773 183.204 317.062 180.326L317.046 180.342Z" fill="#14124F"/>
<path d="M324.367 268.683C314.312 287.85 315.798 321.678 315.798 330.694C315.798 339.71 250.654 347.927 250.654 347.927C245.794 353.363 251.757 356.991 251.757 356.991C251.757 356.991 335.893 364.889 344.446 358.494C353.015 352.1 383.533 267.915 366.043 252.105C348.554 236.278 334.39 249.515 324.351 268.683H324.367Z" fill="#FA89B9"/>
<path d="M293.305 364.441C293.305 364.441 180.137 349.574 159.994 364.441C139.836 379.308 98.3829 460.887 30.9365 546.174C30.9365 546.174 37.7627 547.677 40.864 553.671C40.864 553.671 135.967 501.38 152.497 459.64C169.027 417.915 203.142 428.866 227.425 436.172C251.708 443.477 318.115 461.478 343.949 426.004C369.783 390.531 357.506 369.029 357.506 369.029C357.506 369.029 329.737 380.363 293.305 364.441Z" fill="#59E9FF"/>
<path d="M120.269 262.975C118.927 258.739 117.568 254.519 116.225 250.282C114.866 246.014 108.136 247.836 109.495 252.137C119.118 282.319 128.758 312.517 138.382 342.699C139.725 346.936 141.084 351.156 142.426 355.393C143.785 359.661 150.516 357.839 149.157 353.538C139.533 323.356 129.893 293.158 120.269 262.975Z" fill="#0B1B58"/>
<path d="M257.225 354.194C225.892 354.322 194.558 354.433 163.209 354.545C158.733 354.561 154.241 354.577 149.765 354.593C146.775 354.593 146.759 359.261 149.765 359.245C181.098 359.133 212.431 359.006 243.78 358.894C248.257 358.878 252.749 358.862 257.225 358.846C260.214 358.846 260.23 354.178 257.225 354.194Z" fill="#0B1B58"/>
<path d="M30.937 546.174C30.937 546.174 17.7643 554.583 8.65207 559.283C-0.460156 563.983 -1.61117 565.15 1.68202 567.691C4.9752 570.233 23.967 569.85 27.0684 567.691C30.1697 565.533 31.9122 568.667 31.9122 568.667C31.9122 568.667 39.2819 570.041 40.8326 568.075C42.3833 566.125 40.7687 552.68 40.7687 552.68C40.7687 552.68 38.1149 545.566 30.953 546.158L30.937 546.174Z" fill="#0B1B58"/>
<path d="M426.741 476.697C423.512 467.825 393.314 468.144 389.397 468.224C376.193 468.496 362.988 468.928 349.799 468.576C336.594 468.208 323.518 466.786 310.313 467.921C302.959 468.56 295.19 468.816 294.854 476.697C294.854 476.697 294.358 488.287 293.943 502.931C293.223 527.278 292.696 560.066 294.854 562.224C298.323 565.693 308.043 571.256 319.841 567.084C331.639 562.911 360.798 560.146 360.798 560.146C360.798 560.146 389.957 562.927 401.755 567.084C413.553 571.256 423.272 565.693 426.741 562.224C428.9 560.066 428.372 527.262 427.653 502.931C427.237 488.287 426.741 476.697 426.741 476.697Z" fill="#F83B89"/>
<path d="M351.588 452.078C344.49 454.924 338.16 460.023 333.508 466.082C330.774 469.631 336.833 473.116 339.534 469.599C338.447 471.006 339.774 469.343 340.126 468.944C340.957 468.001 341.82 467.105 342.716 466.226C345.545 463.492 348.695 461.126 352.212 459.384C364.025 453.533 374.72 459.927 382.074 469.583C384.76 473.1 390.819 469.631 388.101 466.066C379.229 454.428 366.327 446.163 351.588 452.062V452.078Z" fill="#FB89B8"/>
<path d="M389.396 468.24C376.191 468.512 362.986 468.944 349.798 468.592C336.593 468.224 323.516 466.802 310.311 467.937C302.958 468.576 295.188 468.832 294.853 476.713C294.853 476.713 294.357 488.303 293.941 502.947C308.329 520.004 332.916 531.227 360.812 531.227C388.709 531.227 413.296 519.988 427.683 502.947C427.268 488.303 426.772 476.713 426.772 476.713C424.118 467.505 393.345 468.16 389.428 468.24H389.396Z" fill="#FB89B8"/>
<path d="M406.135 506.767C378.622 521.363 344.427 518.981 316.499 506.767C313.782 505.585 311.416 509.581 314.149 510.78C343.676 523.681 379.374 526.223 408.485 510.78C411.122 509.373 408.788 505.361 406.135 506.767Z" fill="#F83B89"/>
</svg>
