<svg width="70" height="95" viewBox="0 0 70 95" fill="none" xmlns="http://www.w3.org/2000/svg">
<path d="M20.5 5.4375C20.5 4.9568 20.309 4.49578 19.9691 4.15587C19.6292 3.81596 19.1682 3.625 18.6875 3.625C18.2068 3.625 17.7458 3.81596 17.4059 4.15587C17.066 4.49578 16.875 4.9568 16.875 5.4375V16.3125C16.8746 18.4017 17.596 20.4269 18.9171 22.0453C20.2383 23.6637 22.078 24.7759 24.125 25.1937V52.5625C24.125 53.0432 24.316 53.5042 24.6559 53.8441C24.9958 54.184 25.4568 54.375 25.9375 54.375C26.4182 54.375 26.8792 54.184 27.2191 53.8441C27.559 53.5042 27.75 53.0432 27.75 52.5625V25.1937C29.797 24.7759 31.6367 23.6637 32.9579 22.0453C34.279 20.4269 35.0004 18.4017 35 16.3125V5.4375C35 4.9568 34.809 4.49578 34.4691 4.15587C34.1292 3.81596 33.6682 3.625 33.1875 3.625C32.7068 3.625 32.2458 3.81596 31.9059 4.15587C31.566 4.49578 31.375 4.9568 31.375 5.4375V16.3125C31.3756 17.4374 31.0273 18.5349 30.378 19.4535C29.7288 20.3722 28.8106 21.0669 27.75 21.4419V5.4375C27.75 4.9568 27.559 4.49578 27.2191 4.15587C26.8792 3.81596 26.4182 3.625 25.9375 3.625C25.4568 3.625 24.9958 3.81596 24.6559 4.15587C24.316 4.49578 24.125 4.9568 24.125 5.4375V21.4419C23.0644 21.0669 22.1462 20.3722 21.497 19.4535C20.8477 18.5349 20.4994 17.4374 20.5 16.3125V5.4375ZM45.875 52.5625V29H40.4375C39.9568 29 39.4958 28.809 39.1559 28.4691C38.816 28.1292 38.625 27.6682 38.625 27.1875V12.6875C38.625 10.2841 39.8067 8.03662 41.4199 6.41988C43.0366 4.80675 45.2841 3.625 47.6875 3.625C48.1682 3.625 48.6292 3.81596 48.9691 4.15587C49.309 4.49578 49.5 4.9568 49.5 5.4375V52.5625C49.5 53.0432 49.309 53.5042 48.9691 53.8441C48.6292 54.184 48.1682 54.375 47.6875 54.375C47.2068 54.375 46.7458 54.184 46.4059 53.8441C46.066 53.5042 45.875 53.0432 45.875 52.5625Z" fill="black"/>
<path d="M6.69141 89H3.04688L3.07031 86.668H6.69141C7.74609 86.668 8.62891 86.4375 9.33984 85.9766C10.0586 85.5156 10.5977 84.8555 10.957 83.9961C11.3242 83.1367 11.5078 82.1133 11.5078 80.9258V80C11.5078 79.0781 11.4023 78.2617 11.1914 77.5508C10.9883 76.8398 10.6836 76.2422 10.2773 75.7578C9.87891 75.2734 9.38672 74.9062 8.80078 74.6562C8.22266 74.4062 7.55469 74.2812 6.79688 74.2812H2.97656V71.9375H6.79688C7.92969 71.9375 8.96484 72.1289 9.90234 72.5117C10.8398 72.8867 11.6484 73.4297 12.3281 74.1406C13.0156 74.8516 13.543 75.7031 13.9102 76.6953C14.2773 77.6875 14.4609 78.7969 14.4609 80.0234V80.9258C14.4609 82.1523 14.2773 83.2617 13.9102 84.2539C13.543 85.2461 13.0156 86.0977 12.3281 86.8086C11.6406 87.5117 10.8203 88.0547 9.86719 88.4375C8.92188 88.8125 7.86328 89 6.69141 89ZM4.67578 71.9375V89H1.73438V71.9375H4.67578ZM20.1562 76.3203V89H17.3203V76.3203H20.1562ZM17.1328 72.9922C17.1328 72.5625 17.2734 72.207 17.5547 71.9258C17.8438 71.6367 18.2422 71.4922 18.75 71.4922C19.25 71.4922 19.6445 71.6367 19.9336 71.9258C20.2227 72.207 20.3672 72.5625 20.3672 72.9922C20.3672 73.4141 20.2227 73.7656 19.9336 74.0469C19.6445 74.3281 19.25 74.4688 18.75 74.4688C18.2422 74.4688 17.8438 74.3281 17.5547 74.0469C17.2734 73.7656 17.1328 73.4141 17.1328 72.9922ZM26.0508 79.0273V89H23.2266V76.3203H25.8867L26.0508 79.0273ZM25.5469 82.1914L24.6328 82.1797C24.6406 81.2812 24.7656 80.457 25.0078 79.707C25.2578 78.957 25.6016 78.3125 26.0391 77.7734C26.4844 77.2344 27.0156 76.8203 27.6328 76.5312C28.25 76.2344 28.9375 76.0859 29.6953 76.0859C30.3047 76.0859 30.8555 76.1719 31.3477 76.3438C31.8477 76.5078 32.2734 76.7773 32.625 77.1523C32.9844 77.5273 33.2578 78.0156 33.4453 78.6172C33.6328 79.2109 33.7266 79.9414 33.7266 80.8086V89H30.8906V80.7969C30.8906 80.1875 30.8008 79.707 30.6211 79.3555C30.4492 78.9961 30.1953 78.7422 29.8594 78.5938C29.5312 78.4375 29.1211 78.3594 28.6289 78.3594C28.1445 78.3594 27.7109 78.4609 27.3281 78.6641C26.9453 78.8672 26.6211 79.1445 26.3555 79.4961C26.0977 79.8477 25.8984 80.2539 25.7578 80.7148C25.6172 81.1758 25.5469 81.668 25.5469 82.1914ZM39.4102 79.0273V89H36.5859V76.3203H39.2461L39.4102 79.0273ZM38.9062 82.1914L37.9922 82.1797C38 81.2812 38.125 80.457 38.3672 79.707C38.6172 78.957 38.9609 78.3125 39.3984 77.7734C39.8438 77.2344 40.375 76.8203 40.9922 76.5312C41.6094 76.2344 42.2969 76.0859 43.0547 76.0859C43.6641 76.0859 44.2148 76.1719 44.707 76.3438C45.207 76.5078 45.6328 76.7773 45.9844 77.1523C46.3438 77.5273 46.6172 78.0156 46.8047 78.6172C46.9922 79.2109 47.0859 79.9414 47.0859 80.8086V89H44.25V80.7969C44.25 80.1875 44.1602 79.707 43.9805 79.3555C43.8086 78.9961 43.5547 78.7422 43.2188 78.5938C42.8906 78.4375 42.4805 78.3594 41.9883 78.3594C41.5039 78.3594 41.0703 78.4609 40.6875 78.6641C40.3047 78.8672 39.9805 79.1445 39.7148 79.4961C39.457 79.8477 39.2578 80.2539 39.1172 80.7148C38.9766 81.1758 38.9062 81.668 38.9062 82.1914ZM55.5586 89.2344C54.6211 89.2344 53.7734 89.082 53.0156 88.7773C52.2656 88.4648 51.625 88.0312 51.0938 87.4766C50.5703 86.9219 50.168 86.2695 49.8867 85.5195C49.6055 84.7695 49.4648 83.9609 49.4648 83.0938V82.625C49.4648 81.6328 49.6094 80.7344 49.8984 79.9297C50.1875 79.125 50.5898 78.4375 51.1055 77.8672C51.6211 77.2891 52.2305 76.8477 52.9336 76.543C53.6367 76.2383 54.3984 76.0859 55.2188 76.0859C56.125 76.0859 56.918 76.2383 57.5977 76.543C58.2773 76.8477 58.8398 77.2773 59.2852 77.832C59.7383 78.3789 60.0742 79.0312 60.293 79.7891C60.5195 80.5469 60.6328 81.3828 60.6328 82.2969V83.5039H50.8359V81.4766H57.8438V81.2539C57.8281 80.7461 57.7266 80.2695 57.5391 79.8242C57.3594 79.3789 57.082 79.0195 56.707 78.7461C56.332 78.4727 55.832 78.3359 55.207 78.3359C54.7383 78.3359 54.3203 78.4375 53.9531 78.6406C53.5938 78.8359 53.293 79.1211 53.0508 79.4961C52.8086 79.8711 52.6211 80.3242 52.4883 80.8555C52.3633 81.3789 52.3008 81.9688 52.3008 82.625V83.0938C52.3008 83.6484 52.375 84.1641 52.5234 84.6406C52.6797 85.1094 52.9062 85.5195 53.2031 85.8711C53.5 86.2227 53.8594 86.5 54.2812 86.7031C54.7031 86.8984 55.1836 86.9961 55.7227 86.9961C56.4023 86.9961 57.0078 86.8594 57.5391 86.5859C58.0703 86.3125 58.5312 85.9258 58.9219 85.4258L60.4102 86.8672C60.1367 87.2656 59.7812 87.6484 59.3438 88.0156C58.9062 88.375 58.3711 88.668 57.7383 88.8945C57.1133 89.1211 56.3867 89.2344 55.5586 89.2344ZM65.6719 78.7344V89H62.8477V76.3203H65.543L65.6719 78.7344ZM69.5508 76.2383L69.5273 78.8633C69.3555 78.832 69.168 78.8086 68.9648 78.793C68.7695 78.7773 68.5742 78.7695 68.3789 78.7695C67.8945 78.7695 67.4688 78.8398 67.1016 78.9805C66.7344 79.1133 66.4258 79.3086 66.1758 79.5664C65.9336 79.8164 65.7461 80.1211 65.6133 80.4805C65.4805 80.8398 65.4023 81.2422 65.3789 81.6875L64.7344 81.7344C64.7344 80.9375 64.8125 80.1992 64.9688 79.5195C65.125 78.8398 65.3594 78.2422 65.6719 77.7266C65.9922 77.2109 66.3906 76.8086 66.8672 76.5195C67.3516 76.2305 67.9102 76.0859 68.543 76.0859C68.7148 76.0859 68.8984 76.1016 69.0938 76.1328C69.2969 76.1641 69.4492 76.1992 69.5508 76.2383Z" fill="#6F6767" fill-opacity="0.74"/>
</svg>
